{
	"asset":{
		"generator":"Khronos glTF Blender I/O v3.5.30",
		"version":"2.0"
	},
	"scene":0,
	"scenes":[
		{
			"name":"Scene",
			"nodes":[
				0,
				1,
				2,
				3,
				4,
				5
			]
		}
	],
	"nodes":[
		{
			"camera":0,
			"name":"Camera",
			"rotation":[
				-0.5401933789253235,
				-0.18538257479667664,
				-0.12339801341295242,
				0.8115401268005371
			],
			"translation":[
				-2.400602102279663,
				10.082569122314453,
				4.4960222244262695
			]
		},
		{
			"name":"CamTarget",
			"translation":[
				-0.5825256705284119,
				0.07364414632320404,
				0.7242248058319092
			]
		},
		{
			"mesh":0,
			"name":"Cube",
			"scale":[
				0.029512181878089905,
				0.029512181878089905,
				0.029512181878089905
			],
			"translation":[
				-0.4459999203681946,
				0,
				0.11874576658010483
			]
		},
		{
			"name":"Text"
		},
		{
			"name":"Text.001",
			"translation":[
				-1.6144171953201294,
				-0.2512762248516083,
				0.6146054267883301
			]
		},
		{
			"mesh":1,
			"name":"Cube.001",
			"scale":[
				0.04167681932449341,
				0.04167681932449341,
				0.04167681932449341
			],
			"translation":[
				-1.0665708780288696,
				-0.2512762248516083,
				0.06606340408325195
			]
		}
	],
	"cameras":[
		{
			"name":"Camera",
			"perspective":{
				"aspectRatio":1.7777777777777777,
				"yfov":0.2306549143284628,
				"zfar":100,
				"znear":0.10000000149011612
			},
			"type":"perspective"
		}
	],
	"animations":[
		{
			"channels":[
				{
					"sampler":0,
					"target":{
						"node":0,
						"path":"translation"
					}
				},
				{
					"sampler":1,
					"target":{
						"node":0,
						"path":"rotation"
					}
				},
				{
					"sampler":2,
					"target":{
						"node":0,
						"path":"scale"
					}
				}
			],
			"name":"Action.010",
			"samplers":[
				{
					"input":7,
					"interpolation":"LINEAR",
					"output":8
				},
				{
					"input":7,
					"interpolation":"LINEAR",
					"output":9
				},
				{
					"input":7,
					"interpolation":"LINEAR",
					"output":10
				}
			]
		},
		{
			"channels":[
				{
					"sampler":0,
					"target":{
						"node":1,
						"path":"translation"
					}
				},
				{
					"sampler":1,
					"target":{
						"node":1,
						"path":"rotation"
					}
				},
				{
					"sampler":2,
					"target":{
						"node":1,
						"path":"scale"
					}
				}
			],
			"name":"Action.006",
			"samplers":[
				{
					"input":7,
					"interpolation":"LINEAR",
					"output":11
				},
				{
					"input":7,
					"interpolation":"LINEAR",
					"output":12
				},
				{
					"input":7,
					"interpolation":"LINEAR",
					"output":13
				}
			]
		},
		{
			"channels":[
				{
					"sampler":0,
					"target":{
						"node":2,
						"path":"translation"
					}
				},
				{
					"sampler":1,
					"target":{
						"node":2,
						"path":"rotation"
					}
				},
				{
					"sampler":2,
					"target":{
						"node":2,
						"path":"scale"
					}
				}
			],
			"name":"Action.005",
			"samplers":[
				{
					"input":7,
					"interpolation":"LINEAR",
					"output":14
				},
				{
					"input":7,
					"interpolation":"LINEAR",
					"output":15
				},
				{
					"input":7,
					"interpolation":"LINEAR",
					"output":16
				}
			]
		},
		{
			"channels":[
				{
					"sampler":0,
					"target":{
						"node":5,
						"path":"translation"
					}
				},
				{
					"sampler":1,
					"target":{
						"node":5,
						"path":"rotation"
					}
				},
				{
					"sampler":2,
					"target":{
						"node":5,
						"path":"scale"
					}
				}
			],
			"name":"Action.009",
			"samplers":[
				{
					"input":7,
					"interpolation":"LINEAR",
					"output":17
				},
				{
					"input":7,
					"interpolation":"LINEAR",
					"output":18
				},
				{
					"input":7,
					"interpolation":"LINEAR",
					"output":19
				}
			]
		}
	],
	"materials":[
		{
			"doubleSided":true,
			"name":"Material.002",
			"pbrMetallicRoughness":{
				"baseColorFactor":[
					0.8000000715255737,
					0,
					0.008649522438645363,
					1
				],
				"metallicFactor":0,
				"roughnessFactor":0.5
			}
		},
		{
			"doubleSided":true,
			"name":"Material.003",
			"pbrMetallicRoughness":{
				"baseColorFactor":[
					0.051547106355428696,
					0,
					0.8000000715255737,
					1
				],
				"metallicFactor":0,
				"roughnessFactor":0.5
			}
		}
	],
	"meshes":[
		{
			"name":"Cube.002",
			"primitives":[
				{
					"attributes":{
						"POSITION":0,
						"TEXCOORD_0":1,
						"NORMAL":2
					},
					"indices":3,
					"material":0
				}
			]
		},
		{
			"name":"Cube.003",
			"primitives":[
				{
					"attributes":{
						"POSITION":4,
						"TEXCOORD_0":5,
						"NORMAL":6
					},
					"indices":3,
					"material":1
				}
			]
		}
	],
	"accessors":[
		{
			"bufferView":0,
			"componentType":5126,
			"count":24,
			"max":[
				1,
				1,
				1
			],
			"min":[
				-1,
				-1,
				-1
			],
			"type":"VEC3"
		},
		{
			"bufferView":1,
			"componentType":5126,
			"count":24,
			"type":"VEC2"
		},
		{
			"bufferView":2,
			"componentType":5126,
			"count":24,
			"type":"VEC3"
		},
		{
			"bufferView":3,
			"componentType":5123,
			"count":36,
			"type":"SCALAR"
		},
		{
			"bufferView":4,
			"componentType":5126,
			"count":24,
			"max":[
				1,
				1,
				1
			],
			"min":[
				-1,
				-1,
				-1
			],
			"type":"VEC3"
		},
		{
			"bufferView":5,
			"componentType":5126,
			"count":24,
			"type":"VEC2"
		},
		{
			"bufferView":6,
			"componentType":5126,
			"count":24,
			"type":"VEC3"
		},
		{
			"bufferView":7,
			"componentType":5126,
			"count":250,
			"max":[
				10.416666666666666
			],
			"min":[
				0.041666666666666664
			],
			"type":"SCALAR"
		},
		{
			"bufferView":8,
			"componentType":5126,
			"count":250,
			"type":"VEC3"
		},
		{
			"bufferView":9,
			"componentType":5126,
			"count":250,
			"type":"VEC4"
		},
		{
			"bufferView":10,
			"componentType":5126,
			"count":250,
			"type":"VEC3"
		},
		{
			"bufferView":11,
			"componentType":5126,
			"count":250,
			"type":"VEC3"
		},
		{
			"bufferView":12,
			"componentType":5126,
			"count":250,
			"type":"VEC4"
		},
		{
			"bufferView":13,
			"componentType":5126,
			"count":250,
			"type":"VEC3"
		},
		{
			"bufferView":14,
			"componentType":5126,
			"count":250,
			"type":"VEC3"
		},
		{
			"bufferView":15,
			"componentType":5126,
			"count":250,
			"type":"VEC4"
		},
		{
			"bufferView":16,
			"componentType":5126,
			"count":250,
			"type":"VEC3"
		},
		{
			"bufferView":17,
			"componentType":5126,
			"count":250,
			"type":"VEC3"
		},
		{
			"bufferView":18,
			"componentType":5126,
			"count":250,
			"type":"VEC4"
		},
		{
			"bufferView":19,
			"componentType":5126,
			"count":250,
			"type":"VEC3"
		}
	],
	"bufferViews":[
		{
			"buffer":0,
			"byteLength":288,
			"byteOffset":0,
			"target":34962
		},
		{
			"buffer":0,
			"byteLength":192,
			"byteOffset":288,
			"target":34962
		},
		{
			"buffer":0,
			"byteLength":288,
			"byteOffset":480,
			"target":34962
		},
		{
			"buffer":0,
			"byteLength":72,
			"byteOffset":768,
			"target":34963
		},
		{
			"buffer":0,
			"byteLength":288,
			"byteOffset":840,
			"target":34962
		},
		{
			"buffer":0,
			"byteLength":192,
			"byteOffset":1128,
			"target":34962
		},
		{
			"buffer":0,
			"byteLength":288,
			"byteOffset":1320,
			"target":34962
		},
		{
			"buffer":0,
			"byteLength":1000,
			"byteOffset":1608
		},
		{
			"buffer":0,
			"byteLength":3000,
			"byteOffset":2608
		},
		{
			"buffer":0,
			"byteLength":4000,
			"byteOffset":5608
		},
		{
			"buffer":0,
			"byteLength":3000,
			"byteOffset":9608
		},
		{
			"buffer":0,
			"byteLength":3000,
			"byteOffset":12608
		},
		{
			"buffer":0,
			"byteLength":4000,
			"byteOffset":15608
		},
		{
			"buffer":0,
			"byteLength":3000,
			"byteOffset":19608
		},
		{
			"buffer":0,
			"byteLength":3000,
			"byteOffset":22608
		},
		{
			"buffer":0,
			"byteLength":4000,
			"byteOffset":25608
		},
		{
			"buffer":0,
			"byteLength":3000,
			"byteOffset":29608
		},
		{
			"buffer":0,
			"byteLength":3000,
			"byteOffset":32608
		},
		{
			"buffer":0,
			"byteLength":4000,
			"byteOffset":35608
		},
		{
			"buffer":0,
			"byteLength":3000,
			"byteOffset":39608
		}
	],
	"buffers":[
		{
			"byteLength":42608,
			"uri":"data:application/octet-stream;base64,"
		}
	]
}
