{
	"asset":{
		"generator":"Khronos glTF Blender I/O v3.5.30",
		"version":"2.0"
	},
	"scene":0,
	"scenes":[
		{
			"name":"Scene",
			"nodes":[
				1,
				3,
				5,
				7,
				9,
				10
			]
		}
	],
	"nodes":[
		{
			"mesh":0,
			"name":"Cube",
			"rotation":[
				0,
				0.8727182149887085,
				0,
				0.48822423815727234
			],
			"scale":[
				-0.049012426286935806,
				-0.04901246353983879,
				-0.049012474715709686
			],
			"translation":[
				0.41858184337615967,
				0.012184042483568192,
				-0.04067587852478027
			]
		},
		{
			"children":[
				0
			],
			"mesh":1,
			"name":"Text",
			"scale":[
				2.4311392307281494,
				2.4311392307281494,
				2.4311392307281494
			],
			"translation":[
				3.998011827468872,
				-0.023489613085985184,
				-6.0124711990356445
			]
		},
		{
			"mesh":2,
			"name":"Cube.003",
			"rotation":[
				0,
				-0.9238795638084412,
				0,
				0.38268333673477173
			],
			"scale":[
				-0.0490124374628067,
				-0.04901246353983879,
				-0.04901248589158058
			],
			"translation":[
				0.3062441349029541,
				-0.08103551715612411,
				-0.4478461742401123
			]
		},
		{
			"children":[
				2
			],
			"mesh":3,
			"name":"Text.001",
			"scale":[
				2.4311392307281494,
				2.4311392307281494,
				2.4311392307281494
			],
			"translation":[
				6.006655693054199,
				0.19157138466835022,
				-6.005744934082031
			]
		},
		{
			"mesh":4,
			"name":"Cube.002",
			"rotation":[
				0,
				0.9238795638084412,
				0,
				0.38268333673477173
			],
			"scale":[
				-0.0490124374628067,
				-0.04901246353983879,
				-0.04901248589158058
			],
			"translation":[
				0.36095333099365234,
				-0.00029439222998917103,
				-0.5855967998504639
			]
		},
		{
			"children":[
				4
			],
			"mesh":5,
			"name":"Text.002",
			"scale":[
				2.4311392307281494,
				2.4311392307281494,
				2.4311392307281494
			],
			"translation":[
				2.994544744491577,
				-0.00810126680880785,
				-6.00297212600708
			]
		},
		{
			"mesh":6,
			"name":"Cube.001",
			"rotation":[
				0,
				0.49130576848983765,
				0,
				0.8709871768951416
			],
			"scale":[
				-0.04901242256164551,
				-0.04901246353983879,
				-0.04901247099041939
			],
			"translation":[
				0.2938108444213867,
				0.0010405938373878598,
				-0.33928680419921875
			]
		},
		{
			"children":[
				6
			],
			"mesh":7,
			"name":"Text.003",
			"scale":[
				2.4311392307281494,
				2.4311392307281494,
				2.4311392307281494
			],
			"translation":[
				5.112701416015625,
				-0.0005074050277471542,
				-5.998663902282715
			]
		},
		{
			"camera":0,
			"name":"Camera",
			"rotation":[
				-0.5272671580314636,
				-0.36741408705711365,
				-0.2702178359031677,
				0.7169229984283447
			],
			"translation":[
				-2,
				0,
				0
			]
		},
		{
			"children":[
				8
			],
			"name":"NurbsPath",
			"translation":[
				5.15573787689209,
				7.318774700164795,
				-5.1778154373168945
			]
		},
		{
			"name":"Empty",
			"rotation":[
				0.7071068286895752,
				0,
				0,
				0.7071068286895752
			],
			"translation":[
				5.041966438293457,
				-0.12583422660827637,
				-6.5347490310668945
			]
		}
	],
	"cameras":[
		{
			"name":"Camera",
			"perspective":{
				"aspectRatio":1.7777777777777777,
				"yfov":0.39959652046304894,
				"zfar":1000,
				"znear":0.10000000149011612
			},
			"type":"perspective"
		}
	],
	"animations":[
		{
			"channels":[
				{
					"sampler":0,
					"target":{
						"node":1,
						"path":"translation"
					}
				},
				{
					"sampler":1,
					"target":{
						"node":1,
						"path":"rotation"
					}
				},
				{
					"sampler":2,
					"target":{
						"node":1,
						"path":"scale"
					}
				}
			],
			"name":"Action.004",
			"samplers":[
				{
					"input":29,
					"interpolation":"LINEAR",
					"output":30
				},
				{
					"input":29,
					"interpolation":"LINEAR",
					"output":31
				},
				{
					"input":29,
					"interpolation":"LINEAR",
					"output":32
				}
			]
		},
		{
			"channels":[
				{
					"sampler":0,
					"target":{
						"node":0,
						"path":"translation"
					}
				},
				{
					"sampler":1,
					"target":{
						"node":0,
						"path":"rotation"
					}
				},
				{
					"sampler":2,
					"target":{
						"node":0,
						"path":"scale"
					}
				}
			],
			"name":"Action",
			"samplers":[
				{
					"input":29,
					"interpolation":"LINEAR",
					"output":33
				},
				{
					"input":29,
					"interpolation":"LINEAR",
					"output":34
				},
				{
					"input":29,
					"interpolation":"LINEAR",
					"output":35
				}
			]
		},
		{
			"channels":[
				{
					"sampler":0,
					"target":{
						"node":3,
						"path":"translation"
					}
				},
				{
					"sampler":1,
					"target":{
						"node":3,
						"path":"rotation"
					}
				},
				{
					"sampler":2,
					"target":{
						"node":3,
						"path":"scale"
					}
				}
			],
			"name":"Action.005",
			"samplers":[
				{
					"input":29,
					"interpolation":"LINEAR",
					"output":36
				},
				{
					"input":29,
					"interpolation":"LINEAR",
					"output":37
				},
				{
					"input":29,
					"interpolation":"LINEAR",
					"output":38
				}
			]
		},
		{
			"channels":[
				{
					"sampler":0,
					"target":{
						"node":2,
						"path":"translation"
					}
				},
				{
					"sampler":1,
					"target":{
						"node":2,
						"path":"rotation"
					}
				},
				{
					"sampler":2,
					"target":{
						"node":2,
						"path":"scale"
					}
				}
			],
			"name":"Action.003",
			"samplers":[
				{
					"input":29,
					"interpolation":"LINEAR",
					"output":39
				},
				{
					"input":29,
					"interpolation":"LINEAR",
					"output":40
				},
				{
					"input":29,
					"interpolation":"LINEAR",
					"output":41
				}
			]
		},
		{
			"channels":[
				{
					"sampler":0,
					"target":{
						"node":5,
						"path":"translation"
					}
				},
				{
					"sampler":1,
					"target":{
						"node":5,
						"path":"rotation"
					}
				},
				{
					"sampler":2,
					"target":{
						"node":5,
						"path":"scale"
					}
				}
			],
			"name":"Action.006",
			"samplers":[
				{
					"input":29,
					"interpolation":"LINEAR",
					"output":42
				},
				{
					"input":29,
					"interpolation":"LINEAR",
					"output":43
				},
				{
					"input":29,
					"interpolation":"LINEAR",
					"output":44
				}
			]
		},
		{
			"channels":[
				{
					"sampler":0,
					"target":{
						"node":4,
						"path":"translation"
					}
				},
				{
					"sampler":1,
					"target":{
						"node":4,
						"path":"rotation"
					}
				},
				{
					"sampler":2,
					"target":{
						"node":4,
						"path":"scale"
					}
				}
			],
			"name":"Action.002",
			"samplers":[
				{
					"input":29,
					"interpolation":"LINEAR",
					"output":45
				},
				{
					"input":29,
					"interpolation":"LINEAR",
					"output":46
				},
				{
					"input":29,
					"interpolation":"LINEAR",
					"output":47
				}
			]
		},
		{
			"channels":[
				{
					"sampler":0,
					"target":{
						"node":7,
						"path":"translation"
					}
				},
				{
					"sampler":1,
					"target":{
						"node":7,
						"path":"rotation"
					}
				},
				{
					"sampler":2,
					"target":{
						"node":7,
						"path":"scale"
					}
				}
			],
			"name":"Action.007",
			"samplers":[
				{
					"input":29,
					"interpolation":"LINEAR",
					"output":48
				},
				{
					"input":29,
					"interpolation":"LINEAR",
					"output":49
				},
				{
					"input":29,
					"interpolation":"LINEAR",
					"output":50
				}
			]
		},
		{
			"channels":[
				{
					"sampler":0,
					"target":{
						"node":6,
						"path":"translation"
					}
				},
				{
					"sampler":1,
					"target":{
						"node":6,
						"path":"rotation"
					}
				},
				{
					"sampler":2,
					"target":{
						"node":6,
						"path":"scale"
					}
				}
			],
			"name":"Action.001",
			"samplers":[
				{
					"input":29,
					"interpolation":"LINEAR",
					"output":51
				},
				{
					"input":29,
					"interpolation":"LINEAR",
					"output":52
				},
				{
					"input":29,
					"interpolation":"LINEAR",
					"output":53
				}
			]
		},
		{
			"channels":[
				{
					"sampler":0,
					"target":{
						"node":8,
						"path":"translation"
					}
				},
				{
					"sampler":1,
					"target":{
						"node":8,
						"path":"rotation"
					}
				},
				{
					"sampler":2,
					"target":{
						"node":8,
						"path":"scale"
					}
				}
			],
			"name":"Action.009",
			"samplers":[
				{
					"input":54,
					"interpolation":"LINEAR",
					"output":55
				},
				{
					"input":54,
					"interpolation":"LINEAR",
					"output":56
				},
				{
					"input":54,
					"interpolation":"LINEAR",
					"output":57
				}
			]
		}
	],
	"materials":[
		{
			"doubleSided":true,
			"name":"Material.002",
			"pbrMetallicRoughness":{
				"baseColorFactor":[
					0.010323900729417801,
					0.8000000715255737,
					0,
					1
				],
				"metallicFactor":0,
				"roughnessFactor":0.5
			}
		},
		{
			"doubleSided":true,
			"name":"Material",
			"pbrMetallicRoughness":{}
		},
		{
			"doubleSided":true,
			"name":"Material.001",
			"pbrMetallicRoughness":{
				"baseColorFactor":[
					0.8000000715255737,
					0.0026437961496412754,
					0.00881186593323946,
					1
				],
				"metallicFactor":0,
				"roughnessFactor":0.5
			}
		},
		{
			"doubleSided":true,
			"name":"Material.003",
			"pbrMetallicRoughness":{
				"baseColorFactor":[
					0.01118527352809906,
					0,
					0.8000000715255737,
					1
				],
				"metallicFactor":0,
				"roughnessFactor":0.5
			}
		},
		{
			"doubleSided":true,
			"name":"Material.004",
			"pbrMetallicRoughness":{
				"baseColorFactor":[
					0.7901723980903625,
					0.8000000715255737,
					0,
					1
				],
				"metallicFactor":0,
				"roughnessFactor":0.5
			}
		}
	],
	"meshes":[
		{
			"name":"Cube.003",
			"primitives":[
				{
					"attributes":{
						"POSITION":0,
						"TEXCOORD_0":1,
						"NORMAL":2
					},
					"indices":3,
					"material":0
				}
			]
		},
		{
			"name":"Text.004",
			"primitives":[
				{
					"attributes":{
						"POSITION":4,
						"TEXCOORD_0":5,
						"NORMAL":6
					},
					"indices":7,
					"material":1
				}
			]
		},
		{
			"name":"Cube.006",
			"primitives":[
				{
					"attributes":{
						"POSITION":8,
						"TEXCOORD_0":9,
						"NORMAL":10
					},
					"indices":3,
					"material":2
				}
			]
		},
		{
			"name":"Text.005",
			"primitives":[
				{
					"attributes":{
						"POSITION":11,
						"TEXCOORD_0":12,
						"NORMAL":13
					},
					"indices":14,
					"material":1
				}
			]
		},
		{
			"name":"Cube.005",
			"primitives":[
				{
					"attributes":{
						"POSITION":15,
						"TEXCOORD_0":16,
						"NORMAL":17
					},
					"indices":3,
					"material":3
				}
			]
		},
		{
			"name":"Text.006",
			"primitives":[
				{
					"attributes":{
						"POSITION":18,
						"TEXCOORD_0":19,
						"NORMAL":20
					},
					"indices":21,
					"material":1
				}
			]
		},
		{
			"name":"Cube.004",
			"primitives":[
				{
					"attributes":{
						"POSITION":22,
						"TEXCOORD_0":23,
						"NORMAL":24
					},
					"indices":3,
					"material":4
				}
			]
		},
		{
			"name":"Text.007",
			"primitives":[
				{
					"attributes":{
						"POSITION":25,
						"TEXCOORD_0":26,
						"NORMAL":27
					},
					"indices":28,
					"material":1
				}
			]
		}
	],
	"accessors":[
		{
			"bufferView":0,
			"componentType":5126,
			"count":24,
			"max":[
				1,
				1,
				1
			],
			"min":[
				-1,
				-1,
				-1
			],
			"type":"VEC3"
		},
		{
			"bufferView":1,
			"componentType":5126,
			"count":24,
			"type":"VEC2"
		},
		{
			"bufferView":2,
			"componentType":5126,
			"count":24,
			"type":"VEC3"
		},
		{
			"bufferView":3,
			"componentType":5123,
			"count":36,
			"type":"SCALAR"
		},
		{
			"bufferView":4,
			"componentType":5126,
			"count":99,
			"max":[
				0.44600000977516174,
				0,
				0.009000000543892384
			],
			"min":[
				0.04100000113248825,
				0,
				-0.4580000340938568
			],
			"type":"VEC3"
		},
		{
			"bufferView":5,
			"componentType":5126,
			"count":99,
			"type":"VEC2"
		},
		{
			"bufferView":6,
			"componentType":5126,
			"count":99,
			"type":"VEC3"
		},
		{
			"bufferView":7,
			"componentType":5123,
			"count":297,
			"type":"SCALAR"
		},
		{
			"bufferView":8,
			"componentType":5126,
			"count":24,
			"max":[
				1,
				1,
				1
			],
			"min":[
				-1,
				-1,
				-1
			],
			"type":"VEC3"
		},
		{
			"bufferView":9,
			"componentType":5126,
			"count":24,
			"type":"VEC2"
		},
		{
			"bufferView":10,
			"componentType":5126,
			"count":24,
			"type":"VEC3"
		},
		{
			"bufferView":11,
			"componentType":5126,
			"count":58,
			"max":[
				0.3320000171661377,
				0,
				0.009000000543892384
			],
			"min":[
				0,
				0,
				-0.5420000553131104
			],
			"type":"VEC3"
		},
		{
			"bufferView":12,
			"componentType":5126,
			"count":58,
			"type":"VEC2"
		},
		{
			"bufferView":13,
			"componentType":5126,
			"count":58,
			"type":"VEC3"
		},
		{
			"bufferView":14,
			"componentType":5123,
			"count":168,
			"type":"SCALAR"
		},
		{
			"bufferView":15,
			"componentType":5126,
			"count":24,
			"max":[
				1,
				1,
				1
			],
			"min":[
				-1,
				-1,
				-1
			],
			"type":"VEC3"
		},
		{
			"bufferView":16,
			"componentType":5126,
			"count":24,
			"type":"VEC2"
		},
		{
			"bufferView":17,
			"componentType":5126,
			"count":24,
			"type":"VEC3"
		},
		{
			"bufferView":18,
			"componentType":5126,
			"count":8,
			"max":[
				0.5870000123977661,
				0,
				0
			],
			"min":[
				0.017000000923871994,
				0,
				-0.6820000410079956
			],
			"type":"VEC3"
		},
		{
			"bufferView":19,
			"componentType":5126,
			"count":8,
			"type":"VEC2"
		},
		{
			"bufferView":20,
			"componentType":5126,
			"count":8,
			"type":"VEC3"
		},
		{
			"bufferView":21,
			"componentType":5123,
			"count":18,
			"type":"SCALAR"
		},
		{
			"bufferView":22,
			"componentType":5126,
			"count":24,
			"max":[
				1,
				1,
				1
			],
			"min":[
				-1,
				-1,
				-1
			],
			"type":"VEC3"
		},
		{
			"bufferView":23,
			"componentType":5126,
			"count":24,
			"type":"VEC2"
		},
		{
			"bufferView":24,
			"componentType":5126,
			"count":24,
			"type":"VEC3"
		},
		{
			"bufferView":25,
			"componentType":5126,
			"count":134,
			"max":[
				0.3450000286102295,
				0,
				0.009000000543892384
			],
			"min":[
				0.04100000113248825,
				0,
				-0.4580000340938568
			],
			"type":"VEC3"
		},
		{
			"bufferView":26,
			"componentType":5126,
			"count":134,
			"type":"VEC2"
		},
		{
			"bufferView":27,
			"componentType":5126,
			"count":134,
			"type":"VEC3"
		},
		{
			"bufferView":28,
			"componentType":5123,
			"count":396,
			"type":"SCALAR"
		},
		{
			"bufferView":29,
			"componentType":5126,
			"count":250,
			"max":[
				10.416666666666666
			],
			"min":[
				0.041666666666666664
			],
			"type":"SCALAR"
		},
		{
			"bufferView":30,
			"componentType":5126,
			"count":250,
			"type":"VEC3"
		},
		{
			"bufferView":31,
			"componentType":5126,
			"count":250,
			"type":"VEC4"
		},
		{
			"bufferView":32,
			"componentType":5126,
			"count":250,
			"type":"VEC3"
		},
		{
			"bufferView":33,
			"componentType":5126,
			"count":250,
			"type":"VEC3"
		},
		{
			"bufferView":34,
			"componentType":5126,
			"count":250,
			"type":"VEC4"
		},
		{
			"bufferView":35,
			"componentType":5126,
			"count":250,
			"type":"VEC3"
		},
		{
			"bufferView":36,
			"componentType":5126,
			"count":250,
			"type":"VEC3"
		},
		{
			"bufferView":37,
			"componentType":5126,
			"count":250,
			"type":"VEC4"
		},
		{
			"bufferView":38,
			"componentType":5126,
			"count":250,
			"type":"VEC3"
		},
		{
			"bufferView":39,
			"componentType":5126,
			"count":250,
			"type":"VEC3"
		},
		{
			"bufferView":40,
			"componentType":5126,
			"count":250,
			"type":"VEC4"
		},
		{
			"bufferView":41,
			"componentType":5126,
			"count":250,
			"type":"VEC3"
		},
		{
			"bufferView":42,
			"componentType":5126,
			"count":250,
			"type":"VEC3"
		},
		{
			"bufferView":43,
			"componentType":5126,
			"count":250,
			"type":"VEC4"
		},
		{
			"bufferView":44,
			"componentType":5126,
			"count":250,
			"type":"VEC3"
		},
		{
			"bufferView":45,
			"componentType":5126,
			"count":250,
			"type":"VEC3"
		},
		{
			"bufferView":46,
			"componentType":5126,
			"count":250,
			"type":"VEC4"
		},
		{
			"bufferView":47,
			"componentType":5126,
			"count":250,
			"type":"VEC3"
		},
		{
			"bufferView":48,
			"componentType":5126,
			"count":250,
			"type":"VEC3"
		},
		{
			"bufferView":49,
			"componentType":5126,
			"count":250,
			"type":"VEC4"
		},
		{
			"bufferView":50,
			"componentType":5126,
			"count":250,
			"type":"VEC3"
		},
		{
			"bufferView":51,
			"componentType":5126,
			"count":250,
			"type":"VEC3"
		},
		{
			"bufferView":52,
			"componentType":5126,
			"count":250,
			"type":"VEC4"
		},
		{
			"bufferView":53,
			"componentType":5126,
			"count":250,
			"type":"VEC3"
		},
		{
			"bufferView":54,
			"componentType":5126,
			"count":100,
			"max":[
				4.166666666666667
			],
			"min":[
				0.041666666666666664
			],
			"type":"SCALAR"
		},
		{
			"bufferView":55,
			"componentType":5126,
			"count":100,
			"type":"VEC3"
		},
		{
			"bufferView":56,
			"componentType":5126,
			"count":100,
			"type":"VEC4"
		},
		{
			"bufferView":57,
			"componentType":5126,
			"count":100,
			"type":"VEC3"
		}
	],
	"bufferViews":[
		{
			"buffer":0,
			"byteLength":288,
			"byteOffset":0,
			"target":34962
		},
		{
			"buffer":0,
			"byteLength":192,
			"byteOffset":288,
			"target":34962
		},
		{
			"buffer":0,
			"byteLength":288,
			"byteOffset":480,
			"target":34962
		},
		{
			"buffer":0,
			"byteLength":72,
			"byteOffset":768,
			"target":34963
		},
		{
			"buffer":0,
			"byteLength":1188,
			"byteOffset":840,
			"target":34962
		},
		{
			"buffer":0,
			"byteLength":792,
			"byteOffset":2028,
			"target":34962
		},
		{
			"buffer":0,
			"byteLength":1188,
			"byteOffset":2820,
			"target":34962
		},
		{
			"buffer":0,
			"byteLength":594,
			"byteOffset":4008,
			"target":34963
		},
		{
			"buffer":0,
			"byteLength":288,
			"byteOffset":4604,
			"target":34962
		},
		{
			"buffer":0,
			"byteLength":192,
			"byteOffset":4892,
			"target":34962
		},
		{
			"buffer":0,
			"byteLength":288,
			"byteOffset":5084,
			"target":34962
		},
		{
			"buffer":0,
			"byteLength":696,
			"byteOffset":5372,
			"target":34962
		},
		{
			"buffer":0,
			"byteLength":464,
			"byteOffset":6068,
			"target":34962
		},
		{
			"buffer":0,
			"byteLength":696,
			"byteOffset":6532,
			"target":34962
		},
		{
			"buffer":0,
			"byteLength":336,
			"byteOffset":7228,
			"target":34963
		},
		{
			"buffer":0,
			"byteLength":288,
			"byteOffset":7564,
			"target":34962
		},
		{
			"buffer":0,
			"byteLength":192,
			"byteOffset":7852,
			"target":34962
		},
		{
			"buffer":0,
			"byteLength":288,
			"byteOffset":8044,
			"target":34962
		},
		{
			"buffer":0,
			"byteLength":96,
			"byteOffset":8332,
			"target":34962
		},
		{
			"buffer":0,
			"byteLength":64,
			"byteOffset":8428,
			"target":34962
		},
		{
			"buffer":0,
			"byteLength":96,
			"byteOffset":8492,
			"target":34962
		},
		{
			"buffer":0,
			"byteLength":36,
			"byteOffset":8588,
			"target":34963
		},
		{
			"buffer":0,
			"byteLength":288,
			"byteOffset":8624,
			"target":34962
		},
		{
			"buffer":0,
			"byteLength":192,
			"byteOffset":8912,
			"target":34962
		},
		{
			"buffer":0,
			"byteLength":288,
			"byteOffset":9104,
			"target":34962
		},
		{
			"buffer":0,
			"byteLength":1608,
			"byteOffset":9392,
			"target":34962
		},
		{
			"buffer":0,
			"byteLength":1072,
			"byteOffset":11000,
			"target":34962
		},
		{
			"buffer":0,
			"byteLength":1608,
			"byteOffset":12072,
			"target":34962
		},
		{
			"buffer":0,
			"byteLength":792,
			"byteOffset":13680,
			"target":34963
		},
		{
			"buffer":0,
			"byteLength":1000,
			"byteOffset":14472
		},
		{
			"buffer":0,
			"byteLength":3000,
			"byteOffset":15472
		},
		{
			"buffer":0,
			"byteLength":4000,
			"byteOffset":18472
		},
		{
			"buffer":0,
			"byteLength":3000,
			"byteOffset":22472
		},
		{
			"buffer":0,
			"byteLength":3000,
			"byteOffset":25472
		},
		{
			"buffer":0,
			"byteLength":4000,
			"byteOffset":28472
		},
		{
			"buffer":0,
			"byteLength":3000,
			"byteOffset":32472
		},
		{
			"buffer":0,
			"byteLength":3000,
			"byteOffset":35472
		},
		{
			"buffer":0,
			"byteLength":4000,
			"byteOffset":38472
		},
		{
			"buffer":0,
			"byteLength":3000,
			"byteOffset":42472
		},
		{
			"buffer":0,
			"byteLength":3000,
			"byteOffset":45472
		},
		{
			"buffer":0,
			"byteLength":4000,
			"byteOffset":48472
		},
		{
			"buffer":0,
			"byteLength":3000,
			"byteOffset":52472
		},
		{
			"buffer":0,
			"byteLength":3000,
			"byteOffset":55472
		},
		{
			"buffer":0,
			"byteLength":4000,
			"byteOffset":58472
		},
		{
			"buffer":0,
			"byteLength":3000,
			"byteOffset":62472
		},
		{
			"buffer":0,
			"byteLength":3000,
			"byteOffset":65472
		},
		{
			"buffer":0,
			"byteLength":4000,
			"byteOffset":68472
		},
		{
			"buffer":0,
			"byteLength":3000,
			"byteOffset":72472
		},
		{
			"buffer":0,
			"byteLength":3000,
			"byteOffset":75472
		},
		{
			"buffer":0,
			"byteLength":4000,
			"byteOffset":78472
		},
		{
			"buffer":0,
			"byteLength":3000,
			"byteOffset":82472
		},
		{
			"buffer":0,
			"byteLength":3000,
			"byteOffset":85472
		},
		{
			"buffer":0,
			"byteLength":4000,
			"byteOffset":88472
		},
		{
			"buffer":0,
			"byteLength":3000,
			"byteOffset":92472
		},
		{
			"buffer":0,
			"byteLength":400,
			"byteOffset":95472
		},
		{
			"buffer":0,
			"byteLength":1200,
			"byteOffset":95872
		},
		{
			"buffer":0,
			"byteLength":1600,
			"byteOffset":97072
		},
		{
			"buffer":0,
			"byteLength":1200,
			"byteOffset":98672
		}
	],
	"buffers":[
		{
			"byteLength":99872,
			"uri":"data:application/octet-stream;base64,"
		}
	]
}
